<svg xmlns="http://www.w3.org/2000/svg" width="16" height="16" viewBox="0 0 16 16"><path style="line-height:normal;text-indent:0;text-align:start;text-decoration-line:none;text-decoration-style:solid;text-decoration-color:#000;text-transform:none;block-progression:tb;white-space:normal;isolation:auto;mix-blend-mode:normal;solid-color:#000;solid-opacity:1" fill-rule="evenodd" d="M 9.5039062 0.013671875 A 0.50004988 0.50004988 0 0 0 9.0117188 0.52148438 L 9.0117188 2.0117188 L 7.5136719 2.0117188 C 7.2380119 2.0117188 7.015655 2.2341656 7.015625 2.5097656 L 7.015625 4.3085938 C 7.433925 4.2975938 8.0136719 4.6914062 8.0136719 4.6914062 L 8.0136719 3.0097656 L 9.3945312 3.0097656 A 0.50004988 0.50004988 0 0 0 9.6269531 3.0097656 L 13.386719 3.0097656 A 0.50004988 0.50004988 0 0 0 13.619141 3.0097656 L 15.001953 3.0097656 L 15.001953 8 L 11.310547 8 C 11.591787 8.2868 11.602354 8.6579 11.683594 9 L 15.5 9 C 15.77566 9 15.99998 8.7757 16 8.5 L 16 2.5097656 C 15.99998 2.2341656 15.77566 2.0117188 15.5 2.0117188 L 14.003906 2.0117188 L 14.003906 0.52148438 A 0.50004988 0.50004988 0 0 0 13.496094 0.013671875 A 0.50004988 0.50004988 0 0 0 13.003906 0.52148438 L 13.003906 2.0117188 L 10.011719 2.0117188 L 10.011719 0.52148438 A 0.50004988 0.50004988 0 0 0 9.5039062 0.013671875 z M 9.0117188 4.0078125 L 9.0117188 5.0058594 L 10.009766 5.0058594 L 10.009766 4.0078125 L 9.0117188 4.0078125 z M 11.007812 4.0078125 L 11.007812 5.0058594 L 12.007812 5.0058594 L 12.007812 4.0078125 L 11.007812 4.0078125 z M 13.005859 4.0078125 L 13.005859 5.0058594 L 14.003906 5.0058594 L 14.003906 4.0078125 L 13.005859 4.0078125 z M 5.4921875 5 C 2.4637775 5 6e-005 7.4657406 0 10.494141 C 0 13.522541 2.4637275 15.986328 5.4921875 15.986328 C 8.5206375 15.986328 10.986328 13.522541 10.986328 10.494141 C 10.986268 7.4657406 8.5205975 5 5.4921875 5 z M 5.4921875 5.9980469 C 7.9810875 5.9980469 9.9882412 8.0052406 9.9882812 10.494141 C 9.9882912 12.983141 7.9811275 14.988281 5.4921875 14.988281 C 3.0032475 14.988281 0.99803688 12.983141 0.99804688 10.494141 C 0.99808688 8.0052406 3.0032875 5.9980469 5.4921875 5.9980469 z M 11.007812 6.0039062 L 11.007812 7.0019531 L 12.007812 7.0019531 L 12.007812 6.0039062 L 11.007812 6.0039062 z M 13.005859 6.0039062 L 13.005859 7.0019531 L 14.003906 7.0019531 L 14.003906 6.0039062 L 13.005859 6.0039062 z M 5.4863281 6.6621094 A 0.50004988 0.50004988 0 0 0 4.9941406 7.1699219 L 4.9941406 10.494141 A 0.50004988 0.50004988 0 0 0 5.4941406 10.994141 L 8.5058594 10.994141 A 0.50004988 0.50004988 0 1 0 8.5058594 9.9941406 L 5.9941406 9.9941406 L 5.9941406 7.1699219 A 0.50004988 0.50004988 0 0 0 5.4863281 6.6621094 z " color="#000" enable-background="accumulate" font-family="sans-serif" font-weight="400" overflow="visible"/></svg>